v -1.86 -1.88 0
v -1.87 -1.89 0
v -1.97 -1.89 0
v -1.98 -1.9 0
v -2.08 -1.9 0
v -2.09 -1.91 0
v -2.24 -1.91 0
v -2.25 -1.92 0
v -2.34 -1.92 0
v -2.35 -1.93 0
v -2.48 -1.93 0
v -2.49 -1.94 0
v -2.56 -1.94 0
v -2.57 -1.95 0
v -2.8 -1.95 0
v -2.81 -1.96 0
v -3.6 -1.96 0
v -3.61 -1.97 0
v -3.69 -1.97 0
v -3.7 -1.98 0
v -3.78 -1.98 0
v -3.79 -1.99 0
v -3.82 -1.99 0
v -3.83 -2 0
v -3.84 -2 0
v -3.84 -2.87 0
v 3.83 -2.87 0
v 3.83 -2.26 0
v 3.72 -2.26 0
v 3.71 -2.25 0
v 3.61 -2.25 0
v 3.6 -2.24 0
v 3.45 -2.24 0
v 3.44 -2.23 0
v 3.28 -2.23 0
v 3.27 -2.22 0
v 3.08 -2.22 0
v 3.07 -2.21 0
v 2.91 -2.21 0
v 2.9 -2.2 0
v 2.82 -2.2 0
v 2.81 -2.19 0
v 2.66 -2.19 0
v 2.65 -2.18 0
v 2.51 -2.18 0
v 2.5 -2.17 0
v 2.4 -2.17 0
v 2.39 -2.16 0
v 2.28 -2.16 0
v 2.27 -2.15 0
v 2.18 -2.15 0
v 2.17 -2.14 0
v 2.09 -2.14 0
v 2.08 -2.13 0
v 2 -2.13 0
v 1.99 -2.12 0
v 1.92 -2.12 0
v 1.91 -2.11 0
v 1.82 -2.11 0
v 1.81 -2.1 0
v 1.73 -2.1 0
v 1.72 -2.09 0
v 1.64 -2.09 0
v 1.63 -2.08 0
v 1.54 -2.08 0
v 1.53 -2.07 0
v 1.45 -2.07 0
v 1.44 -2.06 0
v 1.34 -2.06 0
v 1.33 -2.05 0
v 1.24 -2.05 0
v 1.23 -2.04 0
v 1.16 -2.04 0
v 1.15 -2.03 0
v 1.07 -2.03 0
v 1.06 -2.02 0
v 0.99 -2.02 0
v 0.98 -2.01 0
v 0.89 -2.01 0
v 0.88 -2 0
v 0.76 -2 0
v 0.75 -1.99 0
v 0.64 -1.99 0
v 0.63 -1.98 0
v 0.4 -1.98 0
v 0.39 -1.97 0
v -0.48 -1.97 0
v -0.49 -1.96 0
v -0.64 -1.96 0
v -0.65 -1.95 0
v -0.76 -1.95 0
v -0.77 -1.94 0
v -0.8 -1.94 0
v -0.81 -1.93 0
v -0.88 -1.93 0
v -0.89 -1.92 0
v -0.93 -1.92 0
v -0.94 -1.91 0
v -0.99 -1.91 0
v -1 -1.9 0
v -1.06 -1.9 0
v -1.07 -1.89 0
v -1.12 -1.89 0
v -1.13 -1.88 0
v -0.004999995 -2.87 0
v 1.9125 -2.87 0
v -1.9225 -2.87 0
v 2.87125 -2.87 0
v 0.95375 -2.87 0
v -0.9637499 -2.87 0
v -2.88125 -2.87 0
v -0.7401628 -2.436955 0
v 0.474375 -2.87 0
v -1.991149 -2.387365 0
v 0.6621045 -2.449746 0
v 3.350625 -2.87 0
v 2.975589 -2.544988 0
v 3.509548 -2.572231 0
v -2.670261 -2.42873 0
v 0.5099309 -2.226658 0
v -2.680764 -2.176666 0
v -0.045 -1.97 0
v 0.2940228 -2.537379 0
v 2.391875 -2.87 0
v 2.561076 -2.543855 0
v 3.110938 -2.87 0
v 3.239468 -2.61938 0
v 3.346207 -2.433691 0
v 3.590312 -2.87 0
v 2.768023 -2.657607 0
v 2.761107 -2.425066 0
v 2.631562 -2.87 0
v 3.139599 -2.418414 0
v 0.5116392 -2.634589 0
v 0.7140625 -2.87 0
v 0.8339062 -2.641844 0
v 1.433125 -2.87 0
v 0.971539 -2.345879 0
v 0.7625328 -2.236079 0
v 0.2346875 -2.87 0
v 2.16531 -2.545497 0
v 2.363623 -2.648381 0
v 2.362625 -2.407731 0
v 1.773843 -2.501247 0
v 2.152187 -2.87 0
v 1.956033 -2.643186 0
v 1.986222 -2.376116 0
v 1.672812 -2.87 0
v -1.443125 -2.87 0
v -0.484375 -2.87 0
v 3.83 -2.565 0
v -3.205 -1.96 0
v -3.046127 -2.318141 0
v -3.0075 -1.96 0
v -3.400194 -2.260898 0
v -2.9192 -2.580779 0
v -3.360625 -2.87 0
v -3.120937 -2.87 0
v -3.240781 -2.572753 0
v -3.236829 -2.374061 0
v -3.84 -2.5 0
v -3.550618 -2.620616 0
v -3.620236 -2.380193 0
v -3.84 -2.25 0
v -3.84 -2.685 0
v -3.600312 -2.87 0
v -3.4025 -1.96 0
v -2.401875 -2.87 0
v -0.2625 -2.397132 0
v 0.1718733 -2.22539 0
v 0.1725 -1.97 0
v -0.08119325 -2.220513 0
v -0.2625 -1.97 0
v 0.008923292 -2.49439 0
v -0.2446875 -2.87 0
v -0.3645312 -2.637745 0
v -0.1385957 -2.668209 0
v -0.4995379 -2.438556 0
v -0.417817 -2.207278 0
v -0.7240624 -2.87 0
v -0.6070309 -2.65676 0
v -0.8507003 -2.654126 0
v -1.190607 -2.344401 0
v -0.9781006 -2.452564 0
v -0.8750957 -2.201411 0
v -1.203437 -2.87 0
v -1.190667 -2.607356 0
v -0.6467473 -2.227021 0
v -1.584979 -2.475788 0
v -1.36589 -2.475838 0
v 0.340477 -2.339285 0
v -1.09744 -2.130389 0
v -1.495 -1.88 0
v -1.475368 -2.187653 0
v -1.3125 -1.88 0
v -1.6775 -1.88 0
v -1.748264 -2.248755 0
v -1.969004 -2.144062 0
v -1.297651 -2.084798 0
v -1.826952 -2.61021 0
v -1.682812 -2.87 0
v 1.193437 -2.615773 0
v 1.193437 -2.87 0
v 1.487593 -2.578543 0
v 1.576241 -2.338154 0
v 1.258267 -2.336306 0
v 1.007417 -2.542548 0
v -2.162188 -2.87 0
v -2.282031 -2.555905 0
v -2.062736 -2.652143 0
v -2.525482 -2.642926 0
v -2.641562 -2.87 0
v -2.369632 -2.248775 0
v -2.459126 -2.440358 0
v -2.197885 -2.365846 0
v -2.186911 -2.129109 0

vn 0 0 -1
vn 0 0 -1
vn 0 0 -1
vn 0 0 -0.9999999
vn 0 0 -1
vn 0 0 -1
vn 0 0 -1
vn 0 0 -1
vn 0 0 -0.9999999
vn 0 0 -1
vn 0 0 -1
vn 0 0 -0.9999999
vn 0 0 -1
vn 0 0 -1
vn 0 0 -1
vn 0 0 -1
vn 0 0 -1
vn 0 0 -1
vn 0 0 -1
vn 0 0 -1
vn 0 0 -1
vn 0 0 -1
vn 0 0 -1
vn 0 0 -1
vn 0 0 -1
vn 0 0 -1
vn 0 0 -1
vn 0 0 -1
vn 0 0 -1
vn 0 0 -1
vn 0 0 -0.9999999
vn 0 0 -1
vn 0 0 -1
vn 0 0 -1
vn 0 0 -1
vn 0 0 -1
vn 0 0 -1
vn 0 0 -1
vn 0 0 -1
vn 0 0 -1
vn 0 0 -1
vn 0 0 -1
vn 0 0 -1
vn 0 0 -1
vn 0 0 -1
vn 0 0 -1
vn 0 0 -1
vn 0 0 -1
vn 0 0 -1
vn 0 0 -0.9999999
vn 0 0 -1
vn 0 0 -1
vn 0 0 -1
vn 0 0 -1
vn 0 0 -1
vn 0 0 -1
vn 0 0 -0.9999999
vn 0 0 -0.9999999
vn 0 0 -1
vn 0 0 -1
vn 0 0 -1
vn 0 0 -1
vn 0 0 -1
vn 0 0 -1
vn 0 0 -0.9999999
vn 0 0 -1
vn 0 0 -1
vn 0 0 -1
vn 0 0 -1
vn 0 0 -1
vn 0 0 -1
vn 0 0 -1
vn 0 0 -1
vn 0 0 -1
vn 0 0 -1
vn 0 0 -1
vn 0 0 -1
vn 0 0 -1
vn 0 0 -1
vn 0 0 -1
vn 0 0 -1
vn 0 0 -1
vn 0 0 -1
vn 0 0 -1
vn 0 0 -1
vn 0 0 -1
vn 0 0 -1
vn 0 0 -0.9999999
vn 0 0 -1
vn 0 0 -1
vn 0 0 -1
vn 0 0 -1
vn 0 0 -1
vn 0 0 -1
vn 0 0 -1
vn 0 0 -1
vn 0 0 -1
vn 0 0 -1
vn 0 0 -1
vn 0 0 -1
vn 0 0 -1
vn 0 0 -1
vn 0 0 -1
vn 0 0 -1
vn 0 0 -0.9999999
vn 0 0 -1
vn 0 0 -1
vn 0 0 -1
vn 0 0 -1
vn 0 0 -1
vn 0 0 -1
vn 0 0 -1
vn 0 0 -1
vn 0 0 -1
vn 0 0 -1
vn 0 0 -1
vn 0 0 -0.9999999
vn 0 0 -1
vn 0 0 -1
vn 0 0 -0.9999999
vn 0 0 -1
vn 0 0 -1
vn 0 0 -1
vn 0 0 -1
vn 0 0 -1
vn 0 0 -1
vn 0 0 -0.9999999
vn 0 0 -1
vn 0 0 -1
vn 0 0 -1
vn 0 0 -1
vn 0 0 -1
vn 0 0 -1
vn 0 0 -1
vn 0 0 -1
vn 0 0 -1
vn 0 0 -1
vn 0 0 -1
vn 0 0 -1
vn 0 0 -1
vn 0 0 -1
vn 0 0 -0.9999999
vn 0 0 -1
vn 0 0 -0.9999999
vn 0 0 -1
vn 0 0 -1
vn 0 0 -1
vn 0 0 -1
vn 0 0 -1
vn 0 0 -1
vn 0 0 -1
vn 0 0 -1
vn 0 0 -1
vn 0 0 -1
vn 0 0 -1
vn 0 0 -1
vn 0 0 -0.9999999
vn 0 0 -0.9999999
vn 0 0 -0.9999999
vn 0 0 -1
vn 0 0 -1
vn 0 0 -1
vn 0 0 -1
vn 0 0 -0.9999999
vn 0 0 -1
vn 0 0 -1
vn 0 0 -1
vn 0 0 -1
vn 0 0 -0.9999999
vn 0 0 -1
vn 0 0 -0.9999999
vn 0 0 -1
vn 0 0 -1
vn 0 0 -1
vn 0 0 -1
vn 0 0 -1
vn 0 0 -1
vn 0 0 -1
vn 0 0 -1
vn 0 0 -1
vn 0 0 -1
vn 0 0 -1
vn 0 0 -1
vn 0 0 -1
vn 0 0 -1
vn 0 0 -1
vn 0 0 -1
vn 0 0 -0.9999999
vn 0 0 -0.9999999
vn 0 0 -1
vn 0 0 -1
vn 0 0 -1
vn 0 0 -1
vn 0 0 -1
vn 0 0 -1
vn 0 0 -0.9999999
vn 0 0 -1
vn 0 0 -1
vn 0 0 -1
vn 0 0 -1
vn 0 0 -1
vn 0 0 -1
vn 0 0 -0.9999999
vn 0 0 -1
vn 0 0 -1
vn 0 0 -1
vn 0 0 -1
vn 0 0 -1
vn 0 0 -1
vn 0 0 -0.9999999
vn 0 0 -0.9999999
vn 0 0 -1
vn 0 0 -1
vn 0 0 -1
vn 0 0 -1
vn 0 0 -1

vt 0.2578125 0.1736111
vt 0.2565104 0.171875
vt 0.2434896 0.171875
vt 0.2421875 0.1701389
vt 0.2291667 0.1701389
vt 0.2278646 0.1684028
vt 0.2083333 0.1684028
vt 0.2070313 0.1666667
vt 0.1953125 0.1666667
vt 0.1940104 0.1649306
vt 0.1770833 0.1649306
vt 0.1757813 0.1631944
vt 0.1666667 0.1631944
vt 0.1653646 0.1614583
vt 0.1354167 0.1614583
vt 0.1341146 0.1597222
vt 0.03125 0.1597222
vt 0.02994792 0.1579861
vt 0.01953125 0.1579861
vt 0.01822917 0.15625
vt 0.0078125 0.15625
vt 0.006510417 0.1545139
vt 0.002604167 0.1545139
vt 0.001302083 0.1527778
vt 0 0.1527778
vt 0 0.001736111
vt 0.9986979 0.001736111
vt 0.9986979 0.1076389
vt 0.984375 0.1076389
vt 0.9830729 0.109375
vt 0.9700521 0.109375
vt 0.96875 0.1111111
vt 0.9492188 0.1111111
vt 0.9479167 0.1128472
vt 0.9270833 0.1128472
vt 0.9257813 0.1145833
vt 0.9010417 0.1145833
vt 0.8997396 0.1163194
vt 0.8789063 0.1163194
vt 0.8776042 0.1180556
vt 0.8671875 0.1180556
vt 0.8658854 0.1197917
vt 0.8463542 0.1197917
vt 0.8450521 0.1215278
vt 0.8268229 0.1215278
vt 0.8255208 0.1232639
vt 0.8125 0.1232639
vt 0.8111979 0.125
vt 0.796875 0.125
vt 0.7955729 0.1267361
vt 0.7838542 0.1267361
vt 0.7825521 0.1284722
vt 0.7721354 0.1284722
vt 0.7708333 0.1302083
vt 0.7604167 0.1302083
vt 0.7591146 0.1319445
vt 0.75 0.1319445
vt 0.7486979 0.1336806
vt 0.7369792 0.1336806
vt 0.7356771 0.1354167
vt 0.7252604 0.1354167
vt 0.7239583 0.1371528
vt 0.7135417 0.1371528
vt 0.7122396 0.1388889
vt 0.7005208 0.1388889
vt 0.6992188 0.140625
vt 0.6888021 0.140625
vt 0.6875 0.1423611
vt 0.6744792 0.1423611
vt 0.6731771 0.1440972
vt 0.6614583 0.1440972
vt 0.6601563 0.1458333
vt 0.6510417 0.1458333
vt 0.6497396 0.1475694
vt 0.6393229 0.1475694
vt 0.6380208 0.1493056
vt 0.6289063 0.1493056
vt 0.6276042 0.1510417
vt 0.6158854 0.1510417
vt 0.6145833 0.1527778
vt 0.5989583 0.1527778
vt 0.5976563 0.1545139
vt 0.5833333 0.1545139
vt 0.5820313 0.15625
vt 0.5520833 0.15625
vt 0.5507813 0.1579861
vt 0.4375 0.1579861
vt 0.4361979 0.1597222
vt 0.4166667 0.1597222
vt 0.4153646 0.1614583
vt 0.4010417 0.1614583
vt 0.3997396 0.1631944
vt 0.3958333 0.1631944
vt 0.3945313 0.1649306
vt 0.3854167 0.1649306
vt 0.3841146 0.1666667
vt 0.3789063 0.1666667
vt 0.3776042 0.1684028
vt 0.3710938 0.1684028
vt 0.3697917 0.1701389
vt 0.3619792 0.1701389
vt 0.3606771 0.171875
vt 0.3541667 0.171875
vt 0.3528646 0.1736111
vt 0.499349 0.001736111
vt 0.7490234 0.001736111
vt 0.2496745 0.001736111
vt 0.8738607 0.001736111
vt 0.6241862 0.001736111
vt 0.3745117 0.001736111
vt 0.1248372 0.001736111
vt 0.4036246 0.07691749
vt 0.5617676 0.001736111
vt 0.2407359 0.08552689
vt 0.5862115 0.07469681
vt 0.9362793 0.001736111
vt 0.8874465 0.05816174
vt 0.9569724 0.0534322
vt 0.1523097 0.07834543
vt 0.5663972 0.1134274
vt 0.1509422 0.1221065
vt 0.4941406 0.1579861
vt 0.5382842 0.05948281
vt 0.8114421 0.001736111
vt 0.8334735 0.05835843
vt 0.90507 0.001736111
vt 0.9218057 0.04524655
vt 0.9357041 0.07748416
vt 0.9674886 0.001736111
vt 0.8604198 0.03860988
vt 0.8595192 0.07898156
vt 0.8426514 0.001736111
vt 0.908802 0.0801364
vt 0.5666197 0.04260598
vt 0.5929769 0.001736111
vt 0.6085815 0.0413465
vt 0.6866048 0.001736111
vt 0.6265025 0.09272933
vt 0.5992882 0.1117918
vt 0.5305583 0.001736111
vt 0.7819414 0.05807344
vt 0.8077634 0.04021168
vt 0.8076336 0.08199117
vt 0.7309691 0.06575579
vt 0.7802327 0.001736111
vt 0.7546918 0.04111359
vt 0.7586226 0.08747993
vt 0.7178141 0.001736111
vt 0.3120931 0.001736111
vt 0.4369303 0.001736111
vt 0.9986979 0.0546875
vt 0.08268229 0.1597222
vt 0.1033689 0.09754504
vt 0.1083984 0.1597222
vt 0.05726643 0.107483
vt 0.1198959 0.05194817
vt 0.06241866 0.001736111
vt 0.09362793 0.001736111
vt 0.07802331 0.05334144
vt 0.07853794 0.08783659
vt 0 0.06597222
vt 0.03767991 0.04503197
vt 0.02861512 0.0867721
vt 0 0.109375
vt 0 0.03385417
vt 0.03120935 0.001736111
vt 0.05696614 0.1597222
vt 0.1872559 0.001736111
vt 0.4658203 0.08383131
vt 0.5223793 0.1136476
vt 0.5224609 0.1579861
vt 0.489428 0.1144943
vt 0.4658203 0.1579861
vt 0.5011619 0.06694619
vt 0.4681396 0.001736111
vt 0.452535 0.0420582
vt 0.4819537 0.03676923
vt 0.434956 0.0766396
vt 0.4455967 0.116792
vt 0.405721 0.001736111
vt 0.4209595 0.03875701
vt 0.3892317 0.03921419
vt 0.3449731 0.09298587
vt 0.3726431 0.0742076
vt 0.3860552 0.1178106
vt 0.3433024 0.001736111
vt 0.3449652 0.04733403
vt 0.4157881 0.1133644
vt 0.2936225 0.07017575
vt 0.3221497 0.07016698
vt 0.5443329 0.09387413
vt 0.3571042 0.1301407
vt 0.3053385 0.1736111
vt 0.3078948 0.1201991
vt 0.3291016 0.1736111
vt 0.2815755 0.1736111
vt 0.2723615 0.1095911
vt 0.2436192 0.1277671
vt 0.3310351 0.1380559
vt 0.2621156 0.04683855
vt 0.2808838 0.001736111
vt 0.6553955 0.04587279
vt 0.6553955 0.001736111
vt 0.693697 0.05233622
vt 0.7052398 0.09407046
vt 0.6638369 0.0943914
vt 0.631174 0.05858546
vt 0.2184652 0.001736111
vt 0.2028605 0.05626655
vt 0.2314146 0.03955851
vt 0.1711612 0.04115862
vt 0.1560466 0.001736111
vt 0.1914542 0.1095878
vt 0.1798013 0.07632671
vt 0.2138171 0.08926283
vt 0.215246 0.130363

f 162/162/162 157/157/157 166/166/166
f 163/163/163 162/162/162 161/161/161
f 160/160/160 152/152/152 153/153/153
f 25/25/25 24/24/24 164/164/164
f 160/160/160 162/162/162 155/155/155
f 23/23/23 22/22/22 24/24/24
f 21/21/21 20/20/20 22/22/22
f 176/176/176 181/181/181 178/178/178
f 164/164/164 20/20/20 163/163/163
f 161/161/161 162/162/162 165/165/165
f 18/18/18 20/20/20 19/19/19
f 22/22/22 164/164/164 24/24/24
f 161/161/161 164/164/164 163/163/163
f 159/159/159 162/162/162 160/160/160
f 140/140/140 174/174/174 123/123/123
f 152/152/152 160/160/160 155/155/155
f 202/202/202 137/137/137 203/203/203
f 16/16/16 15/15/15 121/121/121
f 168/168/168 209/209/209 208/208/208
f 143/143/143 141/141/141 147/147/147
f 162/162/162 159/159/159 157/157/157
f 168/168/168 212/212/212 211/211/211
f 155/155/155 18/18/18 167/167/167
f 152/152/152 155/155/155 167/167/167
f 120/120/120 85/85/85 84/84/84
f 83/83/83 139/139/139 120/120/120
f 83/83/83 82/82/82 81/81/81
f 160/160/160 153/153/153 159/159/159
f 79/79/79 81/81/81 80/80/80
f 115/115/115 120/120/120 139/139/139
f 18/18/18 163/163/163 20/20/20
f 158/158/158 159/159/159 156/156/156
f 188/188/188 185/185/185 91/91/91
f 20/20/20 164/164/164 22/22/22
f 89/89/89 91/91/91 90/90/90
f 192/192/192 101/101/101 99/99/99
f 118/118/118 116/116/116 127/127/127
f 121/121/121 213/213/213 214/214/214
f 188/188/188 91/91/91 89/89/89
f 153/153/153 119/119/119 156/156/156
f 130/130/130 125/125/125 131/131/131
f 143/143/143 49/49/49 47/47/47
f 163/163/163 18/18/18 155/155/155
f 88/88/88 87/87/87 89/89/89
f 91/91/91 185/185/185 93/93/93
f 200/200/200 189/189/189 201/201/201
f 87/87/87 173/173/173 179/179/179
f 120/120/120 84/84/84 83/83/83
f 33/33/33 31/31/31 118/118/118
f 185/185/185 192/192/192 97/97/97
f 113/113/113 134/134/134 135/135/135
f 13/13/13 12/12/12 14/14/14
f 12/12/12 11/11/11 10/10/10
f 51/51/51 147/147/147 53/53/53
f 8/8/8 10/10/10 9/9/9
f 14/14/14 12/12/12 121/121/121
f 142/142/142 124/124/124 145/145/145
f 142/142/142 143/143/143 125/125/125
f 15/15/15 14/14/14 121/121/121
f 147/147/147 57/57/57 55/55/55
f 143/143/143 45/45/45 125/125/125
f 7/7/7 6/6/6 8/8/8
f 6/6/6 5/5/5 4/4/4
f 167/167/167 18/18/18 17/17/17
f 142/142/142 145/145/145 141/141/141
f 4/4/4 3/3/3 2/2/2
f 148/148/148 204/204/204 144/144/144
f 189/189/189 197/197/197 194/194/194
f 6/6/6 216/216/216 8/8/8
f 158/158/158 156/156/156 111/111/111
f 172/172/172 179/179/179 173/173/173
f 165/165/165 166/166/166 26/26/26
f 213/213/213 121/121/121 12/12/12
f 16/16/16 153/153/153 154/154/154
f 95/95/95 97/97/97 96/96/96
f 195/195/195 104/104/104 199/199/199
f 143/143/143 147/147/147 51/51/51
f 132/132/132 130/130/130 108/108/108
f 85/85/85 120/120/120 170/170/170
f 94/94/94 93/93/93 95/95/95
f 93/93/93 92/92/92 91/91/91
f 41/41/41 131/131/131 43/43/43
f 149/149/149 190/190/190 187/187/187
f 142/142/142 125/125/125 132/132/132
f 146/146/146 145/145/145 106/106/106
f 114/114/114 197/197/197 200/200/200
f 103/103/103 102/102/102 101/101/101
f 181/181/181 176/176/176 150/150/150
f 207/207/207 202/202/202 109/109/109
f 99/99/99 98/98/98 97/97/97
f 146/146/146 106/106/106 148/148/148
f 101/101/101 100/100/100 99/99/99
f 138/138/138 77/77/77 75/75/75
f 184/184/184 112/112/112 182/182/182
f 194/194/194 190/190/190 189/189/189
f 159/159/159 158/158/158 157/157/157
f 61/61/61 205/205/205 63/63/63
f 2/2/2 197/197/197 198/198/198
f 192/192/192 185/185/185 184/184/184
f 170/170/170 172/172/172 122/122/122
f 170/170/170 191/191/191 123/123/123
f 123/123/123 174/174/174 170/170/170
f 43/43/43 45/45/45 44/44/44
f 51/51/51 49/49/49 143/143/143
f 126/126/126 127/127/127 116/116/116
f 213/213/213 10/10/10 216/216/216
f 136/136/136 134/134/134 115/115/115
f 42/42/42 41/41/41 43/43/43
f 41/41/41 40/40/40 39/39/39
f 28/28/28 151/151/151 29/29/29
f 47/47/47 45/45/45 143/143/143
f 151/151/151 27/27/27 129/129/129
f 53/53/53 52/52/52 51/51/51
f 57/57/57 147/147/147 59/59/59
f 51/51/51 50/50/50 49/49/49
f 55/55/55 53/53/53 147/147/147
f 179/179/179 178/178/178 188/188/188
f 47/47/47 46/46/46 45/45/45
f 171/171/171 86/86/86 85/85/85
f 49/49/49 48/48/48 47/47/47
f 182/182/182 187/187/187 184/184/184
f 117/117/117 108/108/108 130/130/130
f 124/124/124 142/142/142 132/132/132
f 216/216/216 6/6/6 198/198/198
f 140/140/140 123/123/123 134/134/134
f 143/143/143 142/142/142 141/141/141
f 33/33/33 32/32/32 31/31/31
f 128/128/128 34/34/34 33/33/33
f 31/31/31 30/30/30 29/29/29
f 151/151/151 129/129/129 118/118/118
f 29/29/29 151/151/151 118/118/118
f 31/31/31 29/29/29 118/118/118
f 169/169/169 172/172/172 174/174/174
f 121/121/121 153/153/153 16/16/16
f 128/128/128 127/127/127 133/133/133
f 156/156/156 159/159/159 153/153/153
f 37/37/37 39/39/39 38/38/38
f 133/133/133 117/117/117 39/39/39
f 200/200/200 107/107/107 210/210/210
f 135/135/135 134/134/134 136/136/136
f 35/35/35 34/34/34 128/128/128
f 206/206/206 73/73/73 71/71/71
f 134/134/134 113/113/113 140/140/140
f 128/128/128 33/33/33 118/118/118
f 133/133/133 127/127/127 117/117/117
f 37/37/37 36/36/36 133/133/133
f 117/117/117 127/127/127 126/126/126
f 154/154/154 153/153/153 152/152/152
f 166/166/166 165/165/165 162/162/162
f 45/45/45 43/43/43 125/125/125
f 147/147/147 144/144/144 59/59/59
f 145/145/145 146/146/146 141/141/141
f 69/69/69 71/71/71 70/70/70
f 138/138/138 73/73/73 206/206/206
f 133/133/133 35/35/35 128/128/128
f 116/116/116 118/118/118 129/129/129
f 127/127/127 128/128/128 118/118/118
f 68/68/68 67/67/67 69/69/69
f 67/67/67 66/66/66 65/65/65
f 131/131/131 117/117/117 130/130/130
f 206/206/206 205/205/205 204/204/204
f 81/81/81 139/139/139 83/83/83
f 134/134/134 191/191/191 115/115/115
f 78/78/78 77/77/77 79/79/79
f 77/77/77 76/76/76 75/75/75
f 138/138/138 115/115/115 139/139/139
f 39/39/39 117/117/117 131/131/131
f 73/73/73 72/72/72 71/71/71
f 109/109/109 135/135/135 136/136/136
f 75/75/75 74/74/74 73/73/73
f 132/132/132 125/125/125 130/130/130
f 146/146/146 148/148/148 144/144/144
f 139/139/139 77/77/77 138/138/138
f 146/146/146 147/147/147 141/141/141
f 75/75/75 73/73/73 138/138/138
f 79/79/79 77/77/77 139/139/139
f 59/59/59 58/58/58 57/57/57
f 205/205/205 61/61/61 59/59/59
f 57/57/57 56/56/56 55/55/55
f 115/115/115 138/138/138 136/136/136
f 54/54/54 53/53/53 55/55/55
f 125/125/125 43/43/43 131/131/131
f 174/174/174 105/105/105 177/177/177
f 185/185/185 95/95/95 93/93/93
f 207/207/207 138/138/138 206/206/206
f 153/153/153 121/121/121 119/119/119
f 63/63/63 65/65/65 64/64/64
f 205/205/205 206/206/206 67/67/67
f 171/171/171 170/170/170 122/122/122
f 108/108/108 117/117/117 126/126/126
f 60/60/60 59/59/59 61/61/61
f 39/39/39 131/131/131 41/41/41
f 213/213/213 12/12/12 10/10/10
f 39/39/39 37/37/37 133/133/133
f 174/174/174 172/172/172 170/170/170
f 62/62/62 61/61/61 63/63/63
f 206/206/206 69/69/69 67/67/67
f 36/36/36 35/35/35 133/133/133
f 191/191/191 120/120/120 115/115/115
f 67/67/67 65/65/65 205/205/205
f 146/146/146 144/144/144 147/147/147
f 111/111/111 156/156/156 212/212/212
f 162/162/162 163/163/163 155/155/155
f 139/139/139 81/81/81 79/79/79
f 176/176/176 169/169/169 177/177/177
f 171/171/171 85/85/85 170/170/170
f 122/122/122 172/172/172 173/173/173
f 174/174/174 140/140/140 105/105/105
f 176/176/176 178/178/178 169/169/169
f 175/175/175 176/176/176 177/177/177
f 175/175/175 150/150/150 176/176/176
f 177/177/177 105/105/105 175/175/175
f 177/177/177 169/169/169 174/174/174
f 178/178/178 179/179/179 169/169/169
f 181/181/181 182/182/182 112/112/112
f 169/169/169 179/179/179 172/172/172
f 87/87/87 188/188/188 89/89/89
f 181/181/181 112/112/112 178/178/178
f 181/181/181 180/180/180 182/182/182
f 181/181/181 150/150/150 180/180/180
f 97/97/97 192/192/192 99/99/99
f 182/182/182 180/180/180 110/110/110
f 197/197/197 2/2/2 196/196/196
f 182/182/182 110/110/110 187/187/187
f 184/184/184 185/185/185 112/112/112
f 186/186/186 149/149/149 187/187/187
f 185/185/185 188/188/188 112/112/112
f 185/185/185 97/97/97 95/95/95
f 183/183/183 187/187/187 190/190/190
f 187/187/187 183/183/183 184/184/184
f 186/186/186 187/187/187 110/110/110
f 188/188/188 178/178/178 112/112/112
f 179/179/179 188/188/188 87/87/87
f 103/103/103 199/199/199 104/104/104
f 200/200/200 197/197/197 189/189/189
f 199/199/199 192/192/192 183/183/183
f 190/190/190 149/149/149 189/189/189
f 123/123/123 191/191/191 134/134/134
f 170/170/170 120/120/120 191/191/191
f 192/192/192 103/103/103 101/101/101
f 192/192/192 184/184/184 183/183/183
f 194/194/194 183/183/183 190/190/190
f 194/194/194 193/193/193 199/199/199
f 1/1/1 196/196/196 2/2/2
f 197/197/197 196/196/196 194/194/194
f 193/193/193 195/195/195 199/199/199
f 193/193/193 194/194/194 196/196/196
f 2/2/2 198/198/198 4/4/4
f 198/198/198 6/6/6 4/4/4
f 197/197/197 114/114/114 198/198/198
f 199/199/199 183/183/183 194/194/194
f 199/199/199 103/103/103 192/192/192
f 210/210/210 215/215/215 114/114/114
f 201/201/201 189/189/189 149/149/149
f 137/137/137 202/202/202 204/204/204
f 107/107/107 200/200/200 201/201/201
f 207/207/207 136/136/136 138/138/138
f 204/204/204 148/148/148 137/137/137
f 109/109/109 202/202/202 203/203/203
f 205/205/205 144/144/144 204/204/204
f 144/144/144 205/205/205 59/59/59
f 205/205/205 65/65/65 63/63/63
f 202/202/202 206/206/206 204/204/204
f 71/71/71 69/69/69 206/206/206
f 207/207/207 109/109/109 136/136/136
f 207/207/207 206/206/206 202/202/202
f 215/215/215 216/216/216 198/198/198
f 210/210/210 208/208/208 209/209/209
f 209/209/209 211/211/211 214/214/214
f 210/210/210 107/107/107 208/208/208
f 210/210/210 114/114/114 200/200/200
f 119/119/119 211/211/211 156/156/156
f 209/209/209 168/168/168 211/211/211
f 121/121/121 214/214/214 119/119/119
f 212/212/212 156/156/156 211/211/211
f 215/215/215 214/214/214 213/213/213
f 214/214/214 211/211/211 119/119/119
f 214/214/214 215/215/215 209/209/209
f 215/215/215 210/210/210 209/209/209
f 215/215/215 198/198/198 114/114/114
f 216/216/216 10/10/10 8/8/8
f 216/216/216 215/215/215 213/213/213
